<svg xmlns="http://www.w3.org/2000/svg" xmlns:xlink="http://www.w3.org/1999/xlink" width="64.553" height="64.558" viewBox="0 0 64.553 64.558">
  <defs>
    <clipPath id="clip-path">
      <rect id="Rectangle_1885" data-name="Rectangle 1885" width="62.985" height="62.985" fill="none"/>
    </clipPath>
    <clipPath id="clip-path-2">
      <rect id="Rectangle_1886" data-name="Rectangle 1886" width="32.925" height="54.303" fill="none"/>
    </clipPath>
    <clipPath id="clip-path-3">
      <rect id="Rectangle_1887" data-name="Rectangle 1887" width="36.59" height="56.157" fill="none"/>
    </clipPath>
    <clipPath id="clip-path-4">
      <rect id="Rectangle_1888" data-name="Rectangle 1888" width="64.553" height="64.558" fill="none"/>
    </clipPath>
  </defs>
  <g id="cardano" opacity="0.401">
    <g id="Group_6497" data-name="Group 6497" transform="translate(0.784 0.782)" opacity="0.22" style="mix-blend-mode: overlay;isolation: isolate">
      <g id="Group_6496" data-name="Group 6496">
        <g id="Group_6495" data-name="Group 6495" clip-path="url(#clip-path)">
          <path id="Path_8912" data-name="Path 8912" d="M175.161,345.517a31.486,31.486,0,1,1-24.332-37.292,31.486,31.486,0,0,1,24.332,37.292" transform="translate(-112.857 -307.545)" fill="#cdf8f4"/>
        </g>
      </g>
    </g>
    <g id="Group_6500" data-name="Group 6500" transform="translate(27.805 0.806)" opacity="0.22" style="mix-blend-mode: overlay;isolation: isolate">
      <g id="Group_6499" data-name="Group 6499">
        <g id="Group_6498" data-name="Group 6498" clip-path="url(#clip-path-2)">
          <path id="Path_8913" data-name="Path 8913" d="M141.7,309.033a31.957,31.957,0,0,0-3.1-.819,31.388,31.388,0,0,0-10.952-.325c8.567,18.063,17.025,36.179,26.134,53.972a31.475,31.475,0,0,0,6.793-9.355c-6.622-14.337-12.671-28.94-18.873-43.473" transform="translate(-127.647 -307.558)" fill="#cdf8f4"/>
        </g>
      </g>
    </g>
    <g id="Group_6503" data-name="Group 6503" transform="translate(2.887 7.595)" opacity="0.22" style="mix-blend-mode: overlay;isolation: isolate">
      <g id="Group_6502" data-name="Group 6502">
        <g id="Group_6501" data-name="Group 6501" clip-path="url(#clip-path-3)">
          <path id="Path_8914" data-name="Path 8914" d="M134,366c.952.3,1.922.561,2.918.769a31.3,31.3,0,0,0,13.682-.19c-9.317-18.233-17.959-36.8-26.746-55.3a31.342,31.342,0,0,0-9.845,13.429C120.37,338.618,126.975,352.409,134,366" transform="translate(-114.008 -311.273)" fill="#cdf8f4"/>
        </g>
      </g>
    </g>
    <g id="Group_6506" data-name="Group 6506" style="mix-blend-mode: overlay;isolation: isolate">
      <g id="Group_6505" data-name="Group 6505">
        <g id="Group_6504" data-name="Group 6504" clip-path="url(#clip-path-4)">
          <path id="Path_8915" data-name="Path 8915" d="M144.769,371.677a32.281,32.281,0,1,1,31.516-25.646,32.3,32.3,0,0,1-31.516,25.646m-.071-62.989a30.717,30.717,0,1,0,6.324.661,30.751,30.751,0,0,0-6.324-.661" transform="translate(-112.429 -307.117)" fill="#cdf8f4"/>
        </g>
      </g>
    </g>
    <g id="Cardano-2" data-name="Cardano" transform="translate(14.721 17.228)">
      <path id="Logo" d="M17.447,32.444A.972.972,0,0,1,16.666,32a.875.875,0,0,1-.114-.822.852.852,0,0,1,.351-.513,1.04,1.04,0,0,1,.6-.19.892.892,0,0,1,.473.131c.334.143.433.51.52.834l0,.01c-.048.174-.092.351-.129.5a1.123,1.123,0,0,1-.808.487h-.018A.805.805,0,0,1,17.447,32.444Zm-8.233-.888a.792.792,0,0,1-.562-.255.974.974,0,0,1-.274-.588.923.923,0,0,1,.786-.719.7.7,0,0,1,.151.017.712.712,0,0,1,.634.6.841.841,0,0,1-.031.465.657.657,0,0,1-.31.355A.7.7,0,0,1,9.214,31.556ZM25.956,31.5a.71.71,0,0,1-.634-.346.72.72,0,0,1-.067-.688.96.96,0,0,1,.675-.556,1.23,1.23,0,0,1,.607.308.753.753,0,0,1-.062,1.108A.867.867,0,0,1,25.956,31.5ZM11.419,28.144a1.037,1.037,0,0,1-.153-.011.979.979,0,0,1-.688-.318,1.93,1.93,0,0,1-.406-.664,1.334,1.334,0,0,1,.741-1.284.986.986,0,0,1,.464-.113,1.254,1.254,0,0,1,.9.41,1.068,1.068,0,0,1,.3.812,1.1,1.1,0,0,1-.323.8A1.173,1.173,0,0,1,11.419,28.144Zm12.309-.021a1.029,1.029,0,0,1-.681-.247,1.2,1.2,0,0,1,.14-2,1.025,1.025,0,0,1,.547-.154,1.278,1.278,0,0,1,.92.415,1.086,1.086,0,0,1,.3.828,1.063,1.063,0,0,1-.315.767A1.3,1.3,0,0,1,23.728,28.123Zm-6.291-.954a1.446,1.446,0,0,1-1.23-.809,1.493,1.493,0,0,1-.109-.753,1.314,1.314,0,0,1,.874-1.153,1.2,1.2,0,0,1,.488-.1,1.47,1.47,0,0,1,1.06.479,1.241,1.241,0,0,1,.341.949,1.222,1.222,0,0,1-.346.914A1.511,1.511,0,0,1,17.437,27.169ZM4.354,24.853a.9.9,0,0,1-.508-.154.861.861,0,0,1-.34-.367,1.058,1.058,0,0,1,.025-.964.86.86,0,0,1,.358-.347.835.835,0,0,1,.471-.142.991.991,0,0,1,.436.106,1.094,1.094,0,0,1,.356.281.893.893,0,0,1,.2.746.915.915,0,0,1-.346.608A1.068,1.068,0,0,1,4.354,24.853Zm26.42-.056a.944.944,0,0,1-.907-.588.893.893,0,0,1,.046-.886.965.965,0,0,1,.807-.492.819.819,0,0,1,.134.011h.011a1.151,1.151,0,0,1,.776.466l.006.006.032.033.008.064a1.155,1.155,0,0,1-.2,1.056A.9.9,0,0,1,30.774,24.8ZM14.807,23.435a2.038,2.038,0,0,1-.465-.054,2.287,2.287,0,0,1-1.4-.827,2.353,2.353,0,0,1-.009-2.989,2.347,2.347,0,0,1,1.315-.827,2.093,2.093,0,0,1,.527-.067,2.476,2.476,0,0,1,2.176,1.415,2.4,2.4,0,0,1,.056,1.8,2.425,2.425,0,0,1-.494.774A2.375,2.375,0,0,1,14.807,23.435Zm5.563-.013a2.05,2.05,0,0,1-.405-.04,2.124,2.124,0,0,1-.914-.349,2.483,2.483,0,0,1-.687-.7,2.249,2.249,0,0,1-.319-1.849,2.384,2.384,0,0,1,1.737-1.753,2.1,2.1,0,0,1,.566-.077,2.423,2.423,0,0,1,1.706.738,2.229,2.229,0,0,1,.668,1.6,2.107,2.107,0,0,1-.153.9,2.41,2.41,0,0,1-.493.762A2.379,2.379,0,0,1,20.37,23.422ZM9.284,22.4a1.3,1.3,0,0,1-1.033-.477,1.225,1.225,0,0,1-.327-.663A1.451,1.451,0,0,1,8,20.542a1.5,1.5,0,0,1,.424-.619,1.261,1.261,0,0,1,.7-.3,1.2,1.2,0,0,1,.2-.017,1.428,1.428,0,0,1,1.16.662,1.27,1.27,0,0,1,.14,1.213,1.228,1.228,0,0,1-.517.686A1.514,1.514,0,0,1,9.284,22.4Zm16.5-.024a1.439,1.439,0,0,1-1.226-.795,1.52,1.52,0,0,1,.154-1.467,1.459,1.459,0,0,1,1.1-.551,1.468,1.468,0,0,1,1.05.471,1.274,1.274,0,0,1,.357.962,1.258,1.258,0,0,1-.368.918A1.515,1.515,0,0,1,25.782,22.381ZM12.02,18.6a2.57,2.57,0,0,1-1.291-.349,2.418,2.418,0,0,1-1.123-1.987,2.442,2.442,0,0,1,.22-.987,2.5,2.5,0,0,1,.618-.841,2.16,2.16,0,0,1,.928-.489,2.252,2.252,0,0,1,.6-.08,2.444,2.444,0,0,1,1.211.325,2.265,2.265,0,0,1,.88.894,2.322,2.322,0,0,1,.261,1.569,2.279,2.279,0,0,1-.789,1.38A2.2,2.2,0,0,1,12.02,18.6Zm11.131-.018a2.507,2.507,0,0,1-1.232-.323,2.175,2.175,0,0,1-.885-.915,2.112,2.112,0,0,1-.287-1,2.469,2.469,0,0,1,.183-1.016,2.5,2.5,0,0,1,.588-.866,2.144,2.144,0,0,1,.915-.521,2.421,2.421,0,0,1,.666-.092,2.5,2.5,0,0,1,1.158.282,2.169,2.169,0,0,1,.868.813,2.129,2.129,0,0,1,.337.841,2.407,2.407,0,0,1-.017.9,2.325,2.325,0,0,1-1,1.5A2.229,2.229,0,0,1,23.151,18.581ZM5.158,17.446a1.072,1.072,0,0,1-.772-.309,1.043,1.043,0,0,1-.34-.514,1.285,1.285,0,0,1,.241-1.165,1.047,1.047,0,0,1,.518-.339,1.032,1.032,0,0,1,.366-.067,1.247,1.247,0,0,1,1.01.567,1.072,1.072,0,0,1,.125,1.014,1.053,1.053,0,0,1-.439.6A1.282,1.282,0,0,1,5.158,17.446ZM29.9,17.393a1.07,1.07,0,0,1-.523-.132,1.619,1.619,0,0,1-.671-.873,1.4,1.4,0,0,1,.339-.968,1.3,1.3,0,0,1,.92-.45,1.512,1.512,0,0,1,.816.41,1.052,1.052,0,0,1,.327.831,1.042,1.042,0,0,1-.291.783A1.281,1.281,0,0,1,29.9,17.393ZM.751,17.037a.687.687,0,0,1-.592-.3.718.718,0,0,1-.139-.624.815.815,0,0,1,.449-.559.732.732,0,0,1,.295-.061.815.815,0,0,1,.626.3.685.685,0,0,1,.145.58A.749.749,0,0,1,.751,17.037Zm33.636-.084a.613.613,0,0,1-.091-.007l-.064,0a.6.6,0,0,1-.418-.164.786.786,0,0,1-.22-.388.877.877,0,0,1,.016-.489.649.649,0,0,1,.311-.373.679.679,0,0,1,.4-.122.758.758,0,0,1,.724.484.692.692,0,0,1-.044.682A.736.736,0,0,1,34.387,16.953Zm-19.6-3.168a2.483,2.483,0,0,1-1.262-.344,2.181,2.181,0,0,1-.885-.961,2.392,2.392,0,0,1,1.106-3.21,2.348,2.348,0,0,1,1-.218,2.5,2.5,0,0,1,1.242.327,2.127,2.127,0,0,1,.877.934,2.112,2.112,0,0,1,.268.871,2.4,2.4,0,0,1-.1.9,2.326,2.326,0,0,1-1.15,1.417A2.227,2.227,0,0,1,14.784,13.785Zm5.582-.01a2.525,2.525,0,0,1-1.375-.414,2.167,2.167,0,0,1-.884-1.128,2.262,2.262,0,0,1,.072-1.83,2.315,2.315,0,0,1,1.4-1.251,2.169,2.169,0,0,1,.735-.126,2.425,2.425,0,0,1,1.137.289,2.332,2.332,0,0,1,.869.794,2.392,2.392,0,0,1-.81,3.355A2.183,2.183,0,0,1,20.366,13.775Zm-11.131-.9A1.4,1.4,0,0,1,7.9,11.265a1.281,1.281,0,0,1,.493-.858,1.7,1.7,0,0,1,.936-.361,1.571,1.571,0,0,1,1.389,1.39,1.67,1.67,0,0,1-.418.991,1.288,1.288,0,0,1-.959.446H9.338C9.3,12.876,9.269,12.878,9.235,12.878Zm16.53-.028a1.22,1.22,0,0,1-.716-.227,1.239,1.239,0,0,1-.495-.532,1.5,1.5,0,0,1,.059-1.4,1.25,1.25,0,0,1,.54-.495,1.212,1.212,0,0,1,.618-.165,1.5,1.5,0,0,1,1.055.461,1.279,1.279,0,0,1,.373.938,1.263,1.263,0,0,1-.359.941A1.513,1.513,0,0,1,25.764,12.849ZM4.324,9.62a.909.909,0,0,1-.59-.2.865.865,0,0,1-.294-.388,1.049,1.049,0,0,1-.063-.482.93.93,0,0,1,.516-.774.822.822,0,0,1,.437-.124,1.047,1.047,0,0,1,.83.451.88.88,0,0,1,.132.8.868.868,0,0,1-.359.527A1.067,1.067,0,0,1,4.324,9.62Zm26.388-.046a.819.819,0,0,1-.426-.115.873.873,0,0,1-.382-.336,1.046,1.046,0,0,1-.062-.971.874.874,0,0,1,.336-.382A.841.841,0,0,1,30.7,7.6a1.065,1.065,0,0,1,.773.347.852.852,0,0,1,.23.657.866.866,0,0,1-.248.645A1.045,1.045,0,0,1,30.713,9.574ZM17.574,8.084c-.113,0-.227-.009-.338-.018l-.162-.012a1.848,1.848,0,0,1-.685-.563,1.276,1.276,0,0,1-.254-.838,1.293,1.293,0,0,1,.434-.965,1.652,1.652,0,0,1,.988-.428,2.36,2.36,0,0,1,.713.249,1.142,1.142,0,0,1,.506.543,1.313,1.313,0,0,1,.09,1.061,1.393,1.393,0,0,1-.746.85A1.082,1.082,0,0,1,17.574,8.084Zm6.209-1.361a1.233,1.233,0,0,1-.625-.175A1.349,1.349,0,0,1,22.7,6.1a1.1,1.1,0,0,1-.066-1.09,1.03,1.03,0,0,1,.439-.515,1.26,1.26,0,0,1,.646-.172,1.133,1.133,0,0,1,1.062.636,1.071,1.071,0,0,1,.062.932,1.4,1.4,0,0,1-.846.813A1.153,1.153,0,0,1,23.782,6.722Zm-12.474,0a1.04,1.04,0,0,1-.709-.266,1.13,1.13,0,0,1-.438-1.017,1.15,1.15,0,0,1,.605-.95,1.013,1.013,0,0,1,.55-.158,1.276,1.276,0,0,1,.94.441,1.081,1.081,0,0,1,.277.86,1.086,1.086,0,0,1-.4.784A1.3,1.3,0,0,1,11.308,6.719ZM9.126,2.5A.66.66,0,0,1,8.8,2.418a.651.651,0,0,1-.339-.3.811.811,0,0,1-.094-.436.736.736,0,0,1,.524-.7.627.627,0,0,1,.24-.047.8.8,0,0,1,.579.267.679.679,0,0,1,.187.521.662.662,0,0,1-.18.509A.82.82,0,0,1,9.126,2.5Zm16.81-.042a.741.741,0,0,1-.183-.024.646.646,0,0,1-.427-.233.853.853,0,0,1-.09-.914A.65.65,0,0,1,25.61.973a.692.692,0,0,1,.3-.073.747.747,0,0,1,.538.254,1.086,1.086,0,0,1,.276.566A.894.894,0,0,1,25.936,2.457ZM17.5,1.975a.924.924,0,0,1-.675-.274.962.962,0,0,1-.265-.89A.942.942,0,0,1,17.125.1a.832.832,0,0,1,.388-.1,1.044,1.044,0,0,1,.864.518.866.866,0,0,1,.04.87.874.874,0,0,1-.367.436A1.059,1.059,0,0,1,17.5,1.975Z" transform="translate(0 0)" fill="#57c7f3"/>
    </g>
  </g>
</svg>
